<?xml version="1.0" ?><svg xmlns="http://www.w3.org/2000/svg" id="Layer_2" viewBox="0 0 32 32"><defs><style>.cls-1{fill:none;}.cls-1,.cls-2{stroke-width:0px;}</style></defs><g id="icons"><g id="Organization"><g id="File"><path class="cls-2" d="m16,28h-8V4h8v6c0,1.1.9,2,2,2h6v4s2,0,2,0v-6c0-.3-.1-.5-.3-.7l-7-7c-.2-.2-.4-.3-.7-.3h-10c-1.1,0-2,.9-2,2v24c0,1.1.9,2,2,2h8v-2Zm2-23.6l5.6,5.6h-5.6v-5.6Z"/><polygon class="cls-2" points="30 24 26 24 26 20 24 20 24 24 20 24 20 26 24 26 24 30 26 30 26 26 30 26 30 24"/><rect class="cls-1" width="32" height="32"/></g></g></g></svg>